<?xml version="1.0" encoding="utf-8"?>
<!-- Generator: Adobe Illustrator 27.1.0, SVG Export Plug-In . SVG Version: 6.00 Build 0)  -->
<svg version="1.1" id="Calque_1" xmlns="http://www.w3.org/2000/svg" xmlns:xlink="http://www.w3.org/1999/xlink" x="0px" y="0px"
	 viewBox="0 0 500 500" style="enable-background:new 0 0 500 500;" xml:space="preserve">
<style type="text/css">
	.st23{fill:none;stroke:#000000;stroke-miterlimit:10;}
</style>
<g>
	<path class="st23" d="M104.7,283.3v-4.8c8.2-1.2,8.2-2.6,6.4-8.2c-1.3-3.9-3.4-9.8-5.3-15H80.4c-1.4,4-3.3,9-4.6,13
		c-2.7,8.2,0.4,9.2,10.7,10.1v4.8H54.4v-4.8c8.2-1,10.3-2.2,14.7-13.1l27-67.2l6.2-1.2c8.3,22.6,17.2,45.8,25.6,67.5
		c4.8,12.1,6,13,14.4,14v4.8H104.7z M93.2,221.1c-3.8,9.4-7.4,18.1-10.7,27.6h20.7L93.2,221.1z"/>
	<path class="st23" d="M181.9,283.3h-34.3v-4.4c6.9-0.8,7.5-1.4,7.5-9.2v-28.5c0-6.5-0.5-7.2-6.6-8.5v-4c8.1-0.9,15.3-2.5,23.4-4.9
		c0,4.3,0,9.9,0,14c5.9-9,10.5-13.8,15.9-13.8c4.8,0,8.5,3.2,8.5,7.8c0,6.4-4.6,10-6.6,11.1c-1.8,0.8-3.1,0.1-4-0.6
		c-2.2-1.8-3.9-3.9-6.1-3.9c-2,0-5.2,1.7-7.5,6.6v24.7c0,7.8,0.9,8.2,10,9.2V283.3z"/>
	<path class="st23" d="M273.1,283.3v-4.4c5.2-0.8,6.1-1.3,6.1-9.2v-22.5c0-10.8-5.1-12.7-9.1-12.7c-2.6,0-5.6,0.8-9.6,4
		c0.1,1.6,0.3,3.5,0.3,5.5v26.3c0,7.3,0.4,7.9,6.4,8.7v4.4h-29.3v-4.4c5.7-0.8,6.2-1.2,6.2-8.7v-23.7c0-9.2-3.6-12.2-8.5-12.2
		c-3.2,0-6.4,1.2-10,3.9v32c0,7.3,0.8,7.9,5.6,8.7v4.4h-29.8v-4.4c7.2-0.9,7.5-1.4,7.5-9.2v-27.6c0-7.3-0.1-8.5-6.2-9.4v-4.2
		c7.3-0.8,14.7-2.6,22.9-4.9c0,3.1,0,6.8,0,9.8c2.9-2,5.2-3.6,7.9-5.3c4-2.5,7.2-4,11.1-4c7.3,0,12.1,3.9,14.6,9.9
		c3.1-2.3,5.7-4.2,9-6.4c2.9-1.8,6.5-3.5,10.4-3.5c11.3,0,17.3,7.7,17.3,20.9v25.2c0,7.2,0.7,7.7,7,8.7v4.4H273.1z"/>
	<path class="st23" d="M342,224c18.3,0,29.9,13.8,29.9,29.4c0,20.9-15.1,31.5-30.4,31.5c-19.6,0-30.8-14.8-30.8-30
		C310.7,234.9,327.1,224,342,224z M340.5,229.2c-5.6,0-11,5.9-11,21.8c0,16.1,5.3,28.5,13.5,28.5c4.9,0,10.3-3.4,10.3-22.4
		C353.2,239.1,348.5,229.2,340.5,229.2z"/>
	<path class="st23" d="M414.2,283.3h-34.3v-4.4c6.9-0.8,7.5-1.4,7.5-9.2v-28.5c0-6.5-0.5-7.2-6.6-8.5v-4c8.1-0.9,15.3-2.5,23.4-4.9
		c0,4.3,0,9.9,0,14c5.9-9,10.5-13.8,15.9-13.8c4.8,0,8.5,3.2,8.5,7.8c0,6.4-4.5,10-6.6,11.1c-1.8,0.8-3.1,0.1-4-0.6
		c-2.2-1.8-3.9-3.9-6.1-3.9c-2,0-5.2,1.7-7.5,6.6v24.7c0,7.8,0.9,8.2,10,9.2V283.3z"/>
</g>
</svg>
