<?xml version="1.0" encoding="utf-8"?>
<!-- Generator: Adobe Illustrator 27.1.0, SVG Export Plug-In . SVG Version: 6.00 Build 0)  -->
<svg version="1.1" id="Calque_1" xmlns="http://www.w3.org/2000/svg" xmlns:xlink="http://www.w3.org/1999/xlink" x="0px" y="0px"
	 viewBox="0 0 500 500" style="enable-background:new 0 0 500 500;" xml:space="preserve">
<style type="text/css">
	.st42{fill:rgba(0, 0, 0, 0);stroke:rgba(0, 0, 0, 0);stroke-miterlimit:10;}
</style>
<path id="eq1-1" class="st42" d="M103.4,492.2H51.6c-11.9,0-21.6-9.7-21.6-21.6v-40.8c0-11.9,9.7-21.6,21.6-21.6h51.8c11.9,0,21.6,9.7,21.6,21.6
	v40.8C125,482.5,115.3,492.2,103.4,492.2z"/>
<path id="eq1-2" class="st42" d="M103.4,393.2H51.6c-11.9,0-21.6-9.7-21.6-21.6v-40.8c0-11.9,9.7-21.6,21.6-21.6h51.8c11.9,0,21.6,9.7,21.6,21.6
	v40.8C125,383.6,115.3,393.2,103.4,393.2z"/>
<path id="eq1-3" class="st42" d="M103.4,294.3H51.6c-11.9,0-21.6-9.7-21.6-21.6v-40.8c0-11.9,9.7-21.6,21.6-21.6h51.8c11.9,0,21.6,9.7,21.6,21.6
	v40.8C125,284.7,115.3,294.3,103.4,294.3z"/>
<path id="eq1-4" class="st42" d="M103.4,193.2H51.6c-11.9,0-21.6-9.7-21.6-21.6v-40.8c0-11.9,9.7-21.6,21.6-21.6h51.8c11.9,0,21.6,9.7,21.6,21.6
	v40.8C125,183.6,115.3,193.2,103.4,193.2z"/>
<path id="eq1-5" class="st42" d="M103.4,92.2H51.6C39.7,92.2,30,82.5,30,70.6V29.7c0-11.9,9.7-21.6,21.6-21.6h51.8c11.9,0,21.6,9.7,21.6,21.6
	v40.8C125,82.5,115.3,92.2,103.4,92.2z"/>
<path id="eq2-1" class="st42" d="M218.4,491.8h-51.8c-11.9,0-21.6-9.7-21.6-21.6v-40.8c0-11.9,9.7-21.6,21.6-21.6h51.8
	c11.9,0,21.6,9.7,21.6,21.6v40.8C240,482.2,230.3,491.8,218.4,491.8z"/>
<path id="eq2-2" class="st42" d="M218.4,392.9h-51.8c-11.9,0-21.6-9.7-21.6-21.6v-40.8c0-11.9,9.7-21.6,21.6-21.6h51.8
	c11.9,0,21.6,9.7,21.6,21.6v40.8C240,383.3,230.3,392.9,218.4,392.9z"/>
<path id="eq2-3" class="st42" d="M218.4,294h-51.8c-11.9,0-21.6-9.7-21.6-21.6v-40.8c0-11.9,9.7-21.6,21.6-21.6h51.8c11.9,0,21.6,9.7,21.6,21.6
	v40.8C240,284.4,230.3,294,218.4,294z"/>
<path id="eq2-4" class="st42" d="M218.4,192.9h-51.8c-11.9,0-21.6-9.7-21.6-21.6v-40.8c0-11.9,9.7-21.6,21.6-21.6h51.8
	c11.9,0,21.6,9.7,21.6,21.6v40.8C240,183.3,230.3,192.9,218.4,192.9z"/>
<path id="eq2-5" class="st42" d="M218.4,91.8h-51.8c-11.9,0-21.6-9.7-21.6-21.6V29.4c0-11.9,9.7-21.6,21.6-21.6h51.8c11.9,0,21.6,9.7,21.6,21.6
	v40.8C240,82.2,230.3,91.8,218.4,91.8z"/>
<path id="eq3-1" class="st42" d="M333.4,491.8h-51.8c-11.9,0-21.6-9.7-21.6-21.6v-40.8c0-11.9,9.7-21.6,21.6-21.6h51.8
	c11.9,0,21.6,9.7,21.6,21.6v40.8C355,482.2,345.3,491.8,333.4,491.8z"/>
<path id="eq3-2" class="st42" d="M333.4,392.9h-51.8c-11.9,0-21.6-9.7-21.6-21.6v-40.8c0-11.9,9.7-21.6,21.6-21.6h51.8
	c11.9,0,21.6,9.7,21.6,21.6v40.8C355,383.3,345.3,392.9,333.4,392.9z"/>
<path id="eq3-3" class="st42" d="M333.4,294h-51.8c-11.9,0-21.6-9.7-21.6-21.6v-40.8c0-11.9,9.7-21.6,21.6-21.6h51.8c11.9,0,21.6,9.7,21.6,21.6
	v40.8C355,284.4,345.3,294,333.4,294z"/>
<path id="eq3-4" class="st42" d="M333.4,192.9h-51.8c-11.9,0-21.6-9.7-21.6-21.6v-40.8c0-11.9,9.7-21.6,21.6-21.6h51.8
	c11.9,0,21.6,9.7,21.6,21.6v40.8C355,183.3,345.3,192.9,333.4,192.9z"/>
<path id="eq3-5" class="st42" d="M333.4,91.8h-51.8c-11.9,0-21.6-9.7-21.6-21.6V29.4c0-11.9,9.7-21.6,21.6-21.6h51.8c11.9,0,21.6,9.7,21.6,21.6
	v40.8C355,82.2,345.3,91.8,333.4,91.8z"/>
<path id="eq4-1" class="st42" d="M448.4,491.8h-51.8c-11.9,0-21.6-9.7-21.6-21.6v-40.8c0-11.9,9.7-21.6,21.6-21.6h51.8
	c11.9,0,21.6,9.7,21.6,21.6v40.8C470,482.2,460.3,491.8,448.4,491.8z"/>
<path id="eq4-2" class="st42" d="M448.4,392.9h-51.8c-11.9,0-21.6-9.7-21.6-21.6v-40.8c0-11.9,9.7-21.6,21.6-21.6h51.8
	c11.9,0,21.6,9.7,21.6,21.6v40.8C470,383.3,460.3,392.9,448.4,392.9z"/>
<path id="eq4-3" class="st42" d="M448.4,294h-51.8c-11.9,0-21.6-9.7-21.6-21.6v-40.8c0-11.9,9.7-21.6,21.6-21.6h51.8c11.9,0,21.6,9.7,21.6,21.6
	v40.8C470,284.4,460.3,294,448.4,294z"/>
<path id="eq4-4" class="st42" d="M448.4,192.9h-51.8c-11.9,0-21.6-9.7-21.6-21.6v-40.8c0-11.9,9.7-21.6,21.6-21.6h51.8
	c11.9,0,21.6,9.7,21.6,21.6v40.8C470,183.3,460.3,192.9,448.4,192.9z"/>
<path id="eq4-5" class="st42" d="M448.4,91.8h-51.8c-11.9,0-21.6-9.7-21.6-21.6V29.4c0-11.9,9.7-21.6,21.6-21.6h51.8c11.9,0,21.6,9.7,21.6,21.6
	v40.8C470,82.2,460.3,91.8,448.4,91.8z"/>
</svg>
