<?xml version="1.0" encoding="utf-8"?>
<!-- Generator: Adobe Illustrator 27.1.0, SVG Export Plug-In . SVG Version: 6.00 Build 0)  -->
<svg version="1.1" id="Calque_1" xmlns="http://www.w3.org/2000/svg" xmlns:xlink="http://www.w3.org/1999/xlink" x="0px" y="0px"
	 viewBox="0 0 500 500" style="enable-background:new 0 0 500 500;" xml:space="preserve">
<style type="text/css">
	.st0{fill:none;stroke:#1D1D1B;stroke-width:4;stroke-miterlimit:10;}
</style>
<path id="glass-foot" class="st0" d="M256.2,375c37.7,0.6,67.7,10.7,67.7,23c0,12.7-31.9,23-71.3,23s-71.3-10.3-71.3-23c0-11.7,27.1-21.4,62.1-22.8"
	/>
<path class="st0" d="M244.4,398c-0.1-8.7-0.6-19.2-1.9-30.6c-1.6-14.2-3.7-24.7-4.7-29.2c-1.2-5.5-2.4-10.1-3.4-13.4"/>
<path id="glass-body" class="st0" d="M288.3,193.7c4.8,13.5,7.6,29.5,7.6,46.7c0,48.3-22,87.4-49,87.4c-27.1,0-49-39.1-49-87.4
	c0-17.6,2.9-34,7.9-47.7"/>
<path class="st0" d="M255.4,398c0.1-8.7,0.4-19.2,1.3-30.6c1.1-14.2,2.5-24.7,3.2-29.2c0.8-5.5,1.6-10.1,2.2-13.4"/>
<path class="st0" d="M205.7,192.7"/>
<path class="st0" d="M289.2,192.7c-13.7,3.3-29,5.1-45.2,5.1c-13.7,0-26.8-1.3-38.8-3.7"/>
</svg>
